<svg xmlns="http://www.w3.org/2000/svg" width="595.2755905511812pt" height="841.8897637795277pt" viewBox="0 0 595.2755905511812 841.8897637795277">
<title>Local processing pipeline</title>
<rect width="100%" height="100%" fill="white"/>
<text x="297.6848818897638" y="85.0" text-anchor="middle" font-family="Arial,sans-serif" font-size="14" font-weight="400">3/16</text>
<text x="297.6848818897638" y="786.8897637795277" text-anchor="middle" font-family="Arial,sans-serif" font-size="14" font-weight="700">FIG. 3</text>
<rect x="109.21000000000001" y="98" width="377.58" height="79" fill="none" stroke="black"/>
<text x="298.0" y="133.57999999999998" text-anchor="middle" font-family="Arial,sans-serif" font-size="14" font-weight="400">211</text>
<text x="298.0" y="151.5" text-anchor="middle" font-family="Arial,sans-serif" font-size="14" font-weight="400">CANONICAL CHANNEL / TIME / VALUE</text>
<rect x="109.21000000000001" y="220" width="377.58" height="79" fill="none" stroke="black"/>
<text x="298.0" y="255.57999999999998" text-anchor="middle" font-family="Arial,sans-serif" font-size="14" font-weight="400">212</text>
<text x="298.0" y="273.5" text-anchor="middle" font-family="Arial,sans-serif" font-size="14" font-weight="400">VALIDATE FRAME AND STABLE ORDER</text>
<rect x="109.21000000000001" y="342" width="377.58" height="79" fill="none" stroke="black"/>
<text x="298.0" y="377.58" text-anchor="middle" font-family="Arial,sans-serif" font-size="14" font-weight="400">221</text>
<text x="298.0" y="395.5" text-anchor="middle" font-family="Arial,sans-serif" font-size="14" font-weight="400">AMPLITUDE AND REFRACTORY GATE</text>
<rect x="109.21000000000001" y="464" width="377.58" height="79" fill="none" stroke="black"/>
<text x="298.0" y="499.58" text-anchor="middle" font-family="Arial,sans-serif" font-size="14" font-weight="400">222</text>
<text x="298.0" y="517.5" text-anchor="middle" font-family="Arial,sans-serif" font-size="14" font-weight="400">SELECT APPROVED ENCODER</text>
<path d="M298.0,177 L298.0,220" stroke="black" stroke-width="1" fill="none"/>
<path d="M298.0,220 L295.39,213.0" stroke="black" stroke-width="1" fill="none"/>
<path d="M298.0,220 L300.61,213.0" stroke="black" stroke-width="1" fill="none"/>
<path d="M298.0,299 L298.0,342" stroke="black" stroke-width="1" fill="none"/>
<path d="M298.0,342 L295.39,335.0" stroke="black" stroke-width="1" fill="none"/>
<path d="M298.0,342 L300.61,335.0" stroke="black" stroke-width="1" fill="none"/>
<path d="M298.0,421 L298.0,464" stroke="black" stroke-width="1" fill="none"/>
<path d="M298.0,464 L295.39,457.0" stroke="black" stroke-width="1" fill="none"/>
<path d="M298.0,464 L300.61,457.0" stroke="black" stroke-width="1" fill="none"/>
<rect x="101.38" y="586" width="186.18" height="64" fill="none" stroke="black"/>
<text x="194.47" y="614.08" text-anchor="middle" font-family="Arial,sans-serif" font-size="14" font-weight="400">223</text>
<text x="194.47" y="632.0" text-anchor="middle" font-family="Arial,sans-serif" font-size="14" font-weight="400">SPATIAL COUNTER</text>
<rect x="318.01" y="586" width="186.18" height="64" fill="none" stroke="black"/>
<text x="411.1" y="614.08" text-anchor="middle" font-family="Arial,sans-serif" font-size="14" font-weight="400">224</text>
<text x="411.1" y="632.0" text-anchor="middle" font-family="Arial,sans-serif" font-size="14" font-weight="400">SPIKING NEURONS</text>
<path d="M233.62,543 L233.62,565" stroke="black" stroke-width="1" fill="none"/>
<path d="M233.62,565 L194.47,565" stroke="black" stroke-width="1" fill="none"/>
<path d="M194.47,565 L194.47,586" stroke="black" stroke-width="1" fill="none"/>
<path d="M194.47,586 L191.86,579.0" stroke="black" stroke-width="1" fill="none"/>
<path d="M194.47,586 L197.07999999999998,579.0" stroke="black" stroke-width="1" fill="none"/>
<path d="M362.38,543 L362.38,565" stroke="black" stroke-width="1" fill="none"/>
<path d="M362.38,565 L411.1,565" stroke="black" stroke-width="1" fill="none"/>
<path d="M411.1,565 L411.1,586" stroke="black" stroke-width="1" fill="none"/>
<path d="M411.1,586 L408.49,579.0" stroke="black" stroke-width="1" fill="none"/>
<path d="M411.1,586 L413.71,579.0" stroke="black" stroke-width="1" fill="none"/>
<rect x="109.21000000000001" y="694" width="377.58" height="65" fill="none" stroke="black"/>
<text x="298.0" y="722.58" text-anchor="middle" font-family="Arial,sans-serif" font-size="14" font-weight="400">230</text>
<text x="298.0" y="740.5" text-anchor="middle" font-family="Arial,sans-serif" font-size="14" font-weight="400">TIME / UNIT COUNT MEMORY</text>
<path d="M194.47,650 L194.47,673" stroke="black" stroke-width="1" fill="none"/>
<path d="M194.47,673 L243.19,673" stroke="black" stroke-width="1" fill="none"/>
<path d="M243.19,673 L243.19,694" stroke="black" stroke-width="1" fill="none"/>
<path d="M243.19,694 L240.57999999999998,687.0" stroke="black" stroke-width="1" fill="none"/>
<path d="M243.19,694 L245.8,687.0" stroke="black" stroke-width="1" fill="none"/>
<path d="M411.1,650 L411.1,673" stroke="black" stroke-width="1" fill="none"/>
<path d="M411.1,673 L352.81,673" stroke="black" stroke-width="1" fill="none"/>
<path d="M352.81,673 L352.81,694" stroke="black" stroke-width="1" fill="none"/>
<path d="M352.81,694 L350.2,687.0" stroke="black" stroke-width="1" fill="none"/>
<path d="M352.81,694 L355.42,687.0" stroke="black" stroke-width="1" fill="none"/>
</svg>