<svg xmlns="http://www.w3.org/2000/svg" width="595.2755905511812pt" height="841.8897637795277pt" viewBox="0 0 595.2755905511812 841.8897637795277">
<title>Key isolation and result path</title>
<rect width="100%" height="100%" fill="white"/>
<text x="297.6848818897638" y="85.0" text-anchor="middle" font-family="Arial,sans-serif" font-size="14" font-weight="400">13/16</text>
<text x="297.6848818897638" y="786.8897637795277" text-anchor="middle" font-family="Arial,sans-serif" font-size="14" font-weight="700">FIG. 13</text>
<rect x="97.9" y="99" width="402.81" height="294" fill="none" stroke="black" stroke-dasharray="5 4"/>
<text x="298.0" y="131.0" text-anchor="middle" font-family="Arial,sans-serif" font-size="14" font-weight="700">200  TRUSTED LOCAL DOMAIN</text>
<rect x="116.16999999999999" y="166" width="169.65" height="80" fill="none" stroke="black"/>
<text x="200.995" y="202.07999999999998" text-anchor="middle" font-family="Arial,sans-serif" font-size="14" font-weight="400">1301</text>
<text x="200.995" y="220.0" text-anchor="middle" font-family="Arial,sans-serif" font-size="14" font-weight="400">SECRET KEY</text>
<rect x="327.58" y="166" width="153.99" height="80" fill="none" stroke="black"/>
<text x="404.575" y="193.12" text-anchor="middle" font-family="Arial,sans-serif" font-size="14" font-weight="400">1302</text>
<text x="404.575" y="211.04000000000002" text-anchor="middle" font-family="Arial,sans-serif" font-size="14" font-weight="400">PUBLIC KEY</text>
<text x="404.575" y="228.96" text-anchor="middle" font-family="Arial,sans-serif" font-size="14" font-weight="400">AND CONTEXT</text>
<rect x="124.87" y="292" width="347.13" height="72" fill="none" stroke="black"/>
<text x="298.435" y="324.08" text-anchor="middle" font-family="Arial,sans-serif" font-size="14" font-weight="400">1303</text>
<text x="298.435" y="342.0" text-anchor="middle" font-family="Arial,sans-serif" font-size="14" font-weight="400">LOCAL DECRYPTION</text>
<path d="M198.82,246 L198.82,270" stroke="black" stroke-width="1" fill="none"/>
<path d="M198.82,270 L234.49,270" stroke="black" stroke-width="1" fill="none"/>
<path d="M234.49,270 L234.49,292" stroke="black" stroke-width="1" fill="none"/>
<path d="M234.49,292 L231.88,285.0" stroke="black" stroke-width="1" fill="none"/>
<path d="M234.49,292 L237.1,285.0" stroke="black" stroke-width="1" fill="none"/>
<rect x="97.9" y="460" width="402.81" height="160" fill="none" stroke="black" stroke-dasharray="5 4"/>
<text x="298.0" y="491.0" text-anchor="middle" font-family="Arial,sans-serif" font-size="14" font-weight="700">300  REMOTE DOMAIN</text>
<rect x="116.16999999999999" y="520" width="366.27" height="72" fill="none" stroke="black"/>
<text x="299.305" y="552.08" text-anchor="middle" font-family="Arial,sans-serif" font-size="14" font-weight="400">1304</text>
<text x="299.305" y="570.0" text-anchor="middle" font-family="Arial,sans-serif" font-size="14" font-weight="400">PUBLIC-KEY ENCRYPTED EVALUATION</text>
<path d="M405.01,246 L518.11,246" stroke="black" stroke-width="1" fill="none"/>
<path d="M518.11,246 L518.11,500" stroke="black" stroke-width="1" fill="none"/>
<path d="M518.11,500 L452.86,500" stroke="black" stroke-width="1" fill="none"/>
<path d="M452.86,500 L452.86,520" stroke="black" stroke-width="1" fill="none"/>
<path d="M452.86,520 L450.25,513.0" stroke="black" stroke-width="1" fill="none"/>
<path d="M452.86,520 L455.47,513.0" stroke="black" stroke-width="1" fill="none"/>
<path d="M124.87,556 L76.15,556" stroke="black" stroke-width="1" fill="none"/>
<path d="M76.15,556 L76.15,329" stroke="black" stroke-width="1" fill="none"/>
<path d="M76.15,329 L124.87,329" stroke="black" stroke-width="1" fill="none"/>
<path d="M124.87,329 L118.78,332.0" stroke="black" stroke-width="1" fill="none"/>
<path d="M124.87,329 L118.78,326.0" stroke="black" stroke-width="1" fill="none"/>
<rect x="124.87" y="698" width="347.13" height="72" fill="none" stroke="black"/>
<text x="298.435" y="730.08" text-anchor="middle" font-family="Arial,sans-serif" font-size="14" font-weight="400">1305</text>
<text x="298.435" y="748.0" text-anchor="middle" font-family="Arial,sans-serif" font-size="14" font-weight="400">AUTHORIZED LOCAL RESULT</text>
<path d="M472.0,330 L531.16,330" stroke="black" stroke-width="1" fill="none"/>
<path d="M531.16,330 L531.16,734" stroke="black" stroke-width="1" fill="none"/>
<path d="M531.16,734 L472.0,734" stroke="black" stroke-width="1" fill="none"/>
<path d="M472.0,734 L478.09000000000003,731.0" stroke="black" stroke-width="1" fill="none"/>
<path d="M472.0,734 L478.09000000000003,737.0" stroke="black" stroke-width="1" fill="none"/>
</svg>